<?xml version="1.0" encoding="UTF-8" standalone="no"?>
<svg
   viewBox="0 0 50 50"
   version="1.1"
   id="svg2262"
   sodipodi:docname="fit_view.svg"
   width="50"
   height="50"
   inkscape:version="1.1.1 (3bf5ae0d25, 2021-09-20)"
   xmlns:inkscape="http://www.inkscape.org/namespaces/inkscape"
   xmlns:sodipodi="http://sodipodi.sourceforge.net/DTD/sodipodi-0.dtd"
   xmlns="http://www.w3.org/2000/svg"
   xmlns:svg="http://www.w3.org/2000/svg">
  <defs
     id="defs2266" />
  <sodipodi:namedview
     id="namedview2264"
     pagecolor="#505050"
     bordercolor="#eeeeee"
     borderopacity="1"
     inkscape:pageshadow="0"
     inkscape:pageopacity="0"
     inkscape:pagecheckerboard="0"
     showgrid="false"
     inkscape:zoom="9.1923882"
     inkscape:cx="49.60626"
     inkscape:cy="15.121207"
     inkscape:window-width="1221"
     inkscape:window-height="1008"
     inkscape:window-x="690"
     inkscape:window-y="0"
     inkscape:window-maximized="0"
     inkscape:current-layer="g2260" />
  <g
     class=""
     id="g2260"
     transform="matrix(0.09479529,0,0,0.09479529,0.73240635,0.73240635)">
    <path
       d="M 34.47,35.877697 35.868853,208.24754 99.577341,143.08049 202.97988,245.45095 c 42.47107,-43.44344 42.47107,-43.44344 42.47107,-43.44344 L 142.04841,99.637061 205.7569,34.47 Z"
       fill="#ffffff"
       fill-opacity="1"
       id="path2258"
       sodipodi:nodetypes="cccccccc"
       style="stroke-width:1.34244" />
    <path
       d="M 477.52999,35.928108 306.28269,34.47 369.95766,99.655563 266.54904,201.99518 c 42.44873,43.45577 42.44873,43.45577 42.44873,43.45577 l 103.40862,-102.33963 63.67497,65.18556 z"
       fill="#ffffff"
       fill-opacity="1"
       id="path2258-7"
       sodipodi:nodetypes="cccccccc"
       style="stroke-width:1.34228" />
    <path
       d="m 477.18012,477.52999 0.34987,-172.12205 -64.77887,64.41525 -103.01745,-103.27415 c -43.18463,42.94224 -43.18463,42.94224 -43.18463,42.94224 l 103.01745,103.27415 -64.77886,64.41524 z"
       fill="#ffffff"
       fill-opacity="1"
       id="path2258-2"
       sodipodi:nodetypes="cccccccc"
       style="stroke-width:1.34575" />
    <path
       d="m 34.47,477.17991 172.12187,0.35008 -64.4151,-64.77894 103.27418,-103.01733 C 202.50881,266.54904 202.50881,266.54904 202.50881,266.54904 L 99.234635,369.56635 34.819528,304.7874 Z"
       fill="#ffffff"
       fill-opacity="1"
       id="path2258-0"
       sodipodi:nodetypes="cccccccc"
       style="stroke-width:1.34575" />
  </g>
</svg>
