<?xml version="1.0" encoding="UTF-8"?>
<svg id="Layer_1" data-name="Layer 1" xmlns="http://www.w3.org/2000/svg" viewBox="0 0 1290.15 163.72">
  <defs>
    <style>
      .cls-1 {
        fill: #fff;
        stroke-width: 0px;
      }
    </style>
  </defs>
  <path class="cls-1" d="m1188.73,161.45h31.83l42.75-131.88v131.88h26.83V2.27h-43.21l-42.07,130.52L1161.67,2.27h-43.66v159.17h27.06V30.24l43.66,131.2Zm-243.76,0h28.42l15.01-38.88h70.72l15.01,38.88h28.65L1040.93,2.27h-32.97l-62.99,159.17Zm104.6-63.44h-51.84l25.92-67.31,25.92,67.31Zm-209.2,39.11V26.6h26.15c32.06,0,52.75,15.92,52.75,55.26s-20.69,55.26-52.75,55.26h-26.15Zm-27.29,24.33h56.39c46.16,0,77.08-28.2,77.08-79.59S914.96,2.27,868.8,2.27h-55.71v159.17Zm-48.89-110.06h27.29C791.03,20.92,768.97,0,731.91,0s-58.89,22.51-58.89,46.84,13.42,39.79,40.7,45.48l27.06,5.46c15.24,3.18,20.92,9.55,20.92,20.24,0,11.6-10.01,21.38-28.88,21.38h-2.28c-23.87,0-37.52-12.05-38.2-30.47h-27.29c1.14,34.11,22.74,54.8,63.9,54.8,37.52,0,60.03-19.78,60.03-47.3,0-25.92-16.37-40.25-43.66-45.7l-24.56-4.78c-13.64-2.73-20.46-8.64-20.46-20.01s11.6-21.6,29.79-21.6h2.28c17.51,0,30.7,9.78,31.83,27.06m-149.16,110.06h27.29V2.27h-27.29v159.17Zm-94.82,0h35.93L595.25,2.27h-28.42l-28.42,130.07L510.44,2.27h-34.11l-28.42,129.61L418.34,2.27h-28.2l38.88,159.17h35.93l27.74-123.7,27.51,123.7Z"/>
  <path class="cls-1" d="m256.98,0H81.86C36.65,0,0,36.65,0,81.86s36.65,81.86,81.86,81.86h175.12c45.21,0,81.86-36.65,81.86-81.86S302.19,0,256.98,0Zm-87.56,154.8c-40.29,0-72.94-32.66-72.94-72.94S129.14,8.92,169.42,8.92s72.94,32.66,72.94,72.94-32.66,72.94-72.94,72.94Z"/>
</svg>