<?xml version="1.0" encoding="UTF-8"?>
<svg id="Layer_1" data-name="Layer 1" xmlns="http://www.w3.org/2000/svg" viewBox="0 0 900 533.45">
  <defs>
    <style>
      .cls-1 {
        fill: #fff;
        stroke-width: 0px;
      }
    </style>
  </defs>
  <path class="cls-1" d="m798.58,531.17h31.83l42.75-131.88v131.88h26.83v-159.17h-43.21l-42.07,130.52-43.2-130.52h-43.66v159.17h27.06v-131.2l43.66,131.2Zm-243.76,0h28.42l15.01-38.88h70.72l15.01,38.88h28.65l-61.85-159.17h-32.97l-62.99,159.17Zm104.6-63.44h-51.84l25.92-67.31,25.92,67.31Zm-209.2,39.11v-110.51h26.15c32.06,0,52.75,15.92,52.75,55.26s-20.69,55.26-52.75,55.26h-26.15Zm-27.29,24.33h56.39c46.16,0,77.08-28.2,77.08-79.59s-31.6-79.59-77.77-79.59h-55.71v159.17Zm-48.89-110.06h27.29c-.45-30.47-22.51-51.39-59.57-51.39s-58.89,22.51-58.89,46.84,13.42,39.79,40.7,45.48l27.06,5.46c15.24,3.18,20.92,9.55,20.92,20.24,0,11.6-10.01,21.38-28.88,21.38h-2.28c-23.87,0-37.52-12.05-38.2-30.47h-27.29c1.14,34.11,22.74,54.8,63.9,54.8,37.52,0,60.03-19.78,60.03-47.3,0-25.92-16.37-40.25-43.66-45.7l-24.56-4.78c-13.64-2.73-20.46-8.64-20.46-20.01s11.6-21.6,29.79-21.6h2.28c17.51,0,30.7,9.78,31.83,27.06m-149.16,110.06h27.29v-159.17h-27.29v159.17Zm-94.82,0h35.93l39.11-159.17h-28.42l-28.42,130.07-27.97-130.07h-34.11l-28.42,129.61-29.56-129.61H0l38.88,159.17h35.93l27.74-123.7,27.51,123.7Z"/>
  <path class="cls-1" d="m603.36,0h-292.18c-75.43,0-136.58,61.15-136.58,136.58s61.15,136.58,136.58,136.58h292.18c75.43,0,136.58-61.15,136.58-136.58S678.8,0,603.36,0Zm-146.09,258.28c-67.21,0-121.7-54.49-121.7-121.7S390.06,14.88,457.27,14.88s121.7,54.49,121.7,121.7-54.49,121.7-121.7,121.7Z"/>
</svg>