<?xml version="1.0" encoding="UTF-8" standalone="no"?>
<svg
   id="Layer_1"
   data-name="Layer 1"
   viewBox="0 0 900 899.99998"
   version="1.1"
   sodipodi:docname="WISDAM_Hero Logo_Black.svg"
   width="900"
   height="900"
   inkscape:version="1.4 (86a8ad7, 2024-10-11)"
   inkscape:export-filename="WISDAM_Hero Logo_Black.jpg"
   inkscape:export-xdpi="600"
   inkscape:export-ydpi="600"
   xmlns:inkscape="http://www.inkscape.org/namespaces/inkscape"
   xmlns:sodipodi="http://sodipodi.sourceforge.net/DTD/sodipodi-0.dtd"
   xmlns="http://www.w3.org/2000/svg"
   xmlns:svg="http://www.w3.org/2000/svg">
  <sodipodi:namedview
     id="namedview2"
     pagecolor="#ffffff"
     bordercolor="#000000"
     borderopacity="0.25"
     inkscape:showpageshadow="2"
     inkscape:pageopacity="0.0"
     inkscape:pagecheckerboard="0"
     inkscape:deskcolor="#d1d1d1"
     inkscape:zoom="0.7094638"
     inkscape:cx="324.18849"
     inkscape:cy="419.33077"
     inkscape:window-width="1920"
     inkscape:window-height="1147"
     inkscape:window-x="1912"
     inkscape:window-y="-8"
     inkscape:window-maximized="1"
     inkscape:current-layer="Layer_1" />
  <defs
     id="defs1">
    <style
       id="style1">
      .cls-1 {
        fill: #231f20;
        stroke-width: 0px;
      }
    </style>
  </defs>
  <path
     class="cls-1"
     d="m 779.22283,748.5631 h 30.06201 L 849.66028,627.20973 V 748.5631 H 875 V 602.09801 H 834.19011 L 794.45689,722.19993 753.65643,602.09801 h -41.2349 V 748.5631 h 25.55695 V 627.83545 l 41.23491,120.72765 z m -230.22034,0 h 26.84142 l 14.17627,-35.77661 h 66.79184 l 14.17629,35.77661 h 27.05862 L 639.63239,602.09801 h -31.13867 z m 98.79,-58.37624 h -48.96056 l 24.48029,-61.93733 z M 450.2125,726.17512 V 624.48599 h 24.69751 c 30.27921,0 49.82001,14.64928 49.82001,50.84916 0,36.1999 -19.5408,50.84916 -49.82001,50.84916 H 450.2125 Z m -25.77416,22.38798 h 53.25781 c 43.59603,0 72.79859,-25.94908 72.79859,-73.23714 0,-47.28808 -29.84478,-73.23716 -73.45026,-73.23716 H 424.42889 V 748.55389 Z M 378.26393,647.28806 H 404.0381 C 403.6131,619.25017 382.77844,600 347.77693,600 c -35.00151,0 -55.61896,20.71326 -55.61896,43.10124 0,22.38799 12.6746,36.61397 38.43932,41.84981 l 25.55696,5.02417 c 14.39348,2.92618 19.75799,8.78773 19.75799,18.62446 0,10.67407 -9.45399,19.67345 -27.27586,19.67345 h -2.15336 c -22.54412,0 -35.43595,-11.08818 -36.07817,-28.0379 h -25.77418 c 1.07668,31.38735 21.4769,50.42588 60.35067,50.42588 35.43594,0 56.69563,-18.20117 56.69563,-43.52452 0,-23.85107 -15.46072,-37.03726 -41.2349,-42.05224 l -23.19581,-4.39846 c -12.88238,-2.51209 -19.32354,-7.95037 -19.32354,-18.41281 0,-10.46245 10.95565,-19.87589 28.13529,-19.87589 h 2.15336 c 16.53742,0 28.99478,8.99936 30.06201,24.90008 m -140.8749,101.27504 h 25.77418 V 602.10722 h -25.77418 z m -89.55322,0 h 33.93426 l 36.93764,-146.46509 h -26.8414 L 165.03435,721.79506 138.61793,602.10722 H 106.40258 L 79.561164,721.37177 51.643079,602.10722 H 25 l 36.720406,146.46509 h 33.93426 L 121.85386,634.746 147.83583,748.57231 Z"
     id="path1" />
  <path
     class="cls-1"
     d="M 669.64924,80 H 230.35076 C 116.94025,80 25,172.71602 25,287.08344 25,401.45087 116.94025,494.16688 230.35076,494.16688 H 669.64924 C 783.05975,494.16688 875,401.45087 875,287.08344 875,172.71602 783.07478,80 669.64924,80 Z M 450,471.60574 c -101.05158,0 -182.97838,-82.61808 -182.97838,-184.5223 0,-101.90422 81.92681,-184.52229 182.97838,-184.52229 101.05159,0 182.97839,82.61807 182.97839,184.52229 0,101.90422 -81.9268,184.5223 -182.97839,184.5223 z"
     id="path2" />
</svg>
